<?xml version="1.0" encoding="iso-8859-1"?>
<!-- Generator: Adobe Illustrator 19.0.0, SVG Export Plug-In . SVG Version: 6.00 Build 0)  -->
<svg version="1.1" id="Capa_1" xmlns="http://www.w3.org/2000/svg" xmlns:xlink="http://www.w3.org/1999/xlink" x="0px" y="0px"
	 viewBox="0 0 512 512" style="enable-background:new 0 0 512 512;" xml:space="preserve">
<path style="fill:#303C42;" d="M468.458,475.756L265.792,6.437c-1.686-3.902-5.732-6.433-9.78-6.437
	c-4.056-0.004-8.114,2.527-9.804,6.437L43.542,475.756c-2.25,5.198-0.042,11.239,5.021,13.77l42.667,21.333
	c2.542,1.281,5.458,1.5,8.146,0.573L256,459.225l156.625,52.207c1.104,0.375,2.229,0.552,3.375,0.552
	c1.646,0,3.271-0.375,4.771-1.125l42.667-21.333C468.5,486.995,470.708,480.954,468.458,475.756z"/>
<path style="fill:#D32F2F;" d="M415.188,489.813l-155.813-51.927c-1.104-0.365-2.229-0.552-3.375-0.552
	c-1.146,0-2.271,0.188-3.375,0.552L96.813,489.813l-29.688-14.844L256,37.573l188.875,437.396L415.188,489.813z"/>
<path style="opacity:0.1;enable-background:new    ;" d="M256,37.573v399.76c1.146,0,2.271,0.188,3.375,0.552l155.813,51.927
	l29.688-14.844L256,37.573z"/>
<linearGradient id="SVGID_1_" gradientUnits="userSpaceOnUse" x1="-40.2297" y1="635.3119" x2="-23.0947" y2="627.3243" gradientTransform="matrix(21.3333 0 0 -21.3333 996.3334 13791.667)">
	<stop  offset="0" style="stop-color:#FFFFFF;stop-opacity:0.2"/>
	<stop  offset="1" style="stop-color:#FFFFFF;stop-opacity:0"/>
</linearGradient>
<path style="fill:url(#SVGID_1_);" d="M468.458,475.756L265.792,6.437c-1.686-3.902-5.732-6.433-9.78-6.437
	c-4.056-0.004-8.114,2.527-9.804,6.437L43.542,475.756c-2.25,5.198-0.042,11.239,5.021,13.77l42.667,21.333
	c2.542,1.281,5.458,1.5,8.146,0.573L256,459.225l156.625,52.207c1.104,0.375,2.229,0.552,3.375,0.552
	c1.646,0,3.271-0.375,4.771-1.125l42.667-21.333C468.5,486.995,470.708,480.954,468.458,475.756z"/>
<g>
</g>
<g>
</g>
<g>
</g>
<g>
</g>
<g>
</g>
<g>
</g>
<g>
</g>
<g>
</g>
<g>
</g>
<g>
</g>
<g>
</g>
<g>
</g>
<g>
</g>
<g>
</g>
<g>
</g>
</svg>
